<svg width="80" height="80" viewBox="0 0 80 80" fill="none" xmlns="http://www.w3.org/2000/svg">
<path d="M10 16.6667C10 11.9534 10 9.59675 11.4667 8.13341C12.9267 6.66675 15.2833 6.66675 20 6.66675C24.7167 6.66675 27.07 6.66675 28.5333 8.13341C30 9.59341 30 11.9501 30 16.6667C30 21.3834 30 23.7367 28.5333 25.2001C27.0733 26.6667 24.7167 26.6667 20 26.6667C15.2833 26.6667 12.93 26.6667 11.4667 25.2001C10 23.7401 10 21.3834 10 16.6667ZM10 63.3334C10 58.6201 10 56.2634 11.4667 54.8001C12.9267 53.3334 15.2833 53.3334 20 53.3334C24.7167 53.3334 27.07 53.3334 28.5333 54.8001C30 56.2601 30 58.6167 30 63.3334C30 68.0501 30 70.4034 28.5333 71.8667C27.0733 73.3334 24.7167 73.3334 20 73.3334C15.2833 73.3334 12.93 73.3334 11.4667 71.8667C10 70.4067 10 68.0501 10 63.3334ZM50 23.3334C50 18.6201 50 16.2634 51.4667 14.8001C52.9267 13.3334 55.2833 13.3334 60 13.3334C64.7167 13.3334 67.07 13.3334 68.5333 14.8001C70 16.2601 70 18.6167 70 23.3334C70 28.0501 70 30.4034 68.5333 31.8667C67.07 33.3334 64.7133 33.3334 60 33.3334C55.2867 33.3334 52.93 33.3334 51.4667 31.8667C50 30.4067 50 28.0501 50 23.3334Z" fill="url(#paint0_linear_86_144)" fill-opacity="0.5" stroke="white" stroke-width="3"/>
<path d="M20 26.6667V53.3334C20 50.6812 21.0536 48.1377 22.9289 46.2623C24.8043 44.387 27.3478 43.3334 30 43.3334H50C52.6522 43.3334 55.1957 42.2798 57.0711 40.4045C58.9464 38.5291 60 35.9856 60 33.3334" stroke="white" stroke-width="3" stroke-linecap="round" stroke-linejoin="round"/>
<defs>
<linearGradient id="paint0_linear_86_144" x1="40" y1="6.66675" x2="40" y2="73.3334" gradientUnits="userSpaceOnUse">
<stop offset="0.4" stop-color="white"/>
<stop offset="1" stop-color="#999999"/>
</linearGradient>
</defs>
</svg>
