<svg width="120" height="120" viewBox="0 0 120 120" fill="none" xmlns="http://www.w3.org/2000/svg">
<rect width="120" height="120" rx="24" fill="white"/>
<g filter="url(#filter0_i_136_24)">
<path d="M60.6074 101C77.0535 101 91.2158 91.2488 97.5998 77.2274C92.0323 85.7989 82.3585 91.4705 71.3562 91.4705C54.0988 91.4705 40.1091 77.5178 40.1091 60.3061C40.1091 43.0944 54.0988 29.1416 71.3562 29.1416C81.9537 29.1416 91.3182 34.4037 96.9683 42.4506C90.3141 29.1421 76.5314 20.0001 60.6074 20C38.1806 20 20 38.1325 20 60.5C20 82.8675 38.1806 101 60.6074 101Z" fill="#002961"/>
<path fill-rule="evenodd" clip-rule="evenodd" d="M74.9291 85.4994C88.7753 85.4993 100 74.3043 100 60.4948C100 46.6852 88.7753 35.4903 74.9291 35.4902C61.0829 35.4902 49.8582 46.6852 49.8582 60.4948C49.8583 74.3044 61.0829 85.4994 74.9291 85.4994ZM74.9391 75.9695C66.3642 75.9694 59.413 69.0366 59.413 60.4844C59.413 51.9322 66.3642 44.999 74.9391 44.9989C83.5141 44.9989 90.4657 51.9321 90.4657 60.4844C90.4656 69.0367 83.514 75.9695 74.9391 75.9695Z" fill="#002961"/>
</g>
<path d="M60.6074 100.5C74.7579 100.5 87.1956 93.1906 94.335 82.1514C88.5534 88.1996 80.397 91.9706 71.3564 91.9707C53.8242 91.9707 39.6094 77.7947 39.6094 60.3057C39.6096 42.8167 53.8243 28.6416 71.3564 28.6416C79.9839 28.6417 87.8049 32.0773 93.5264 37.6475C86.2788 27.2824 74.2379 20.5001 60.6074 20.5C38.4555 20.5 20.5 38.4099 20.5 60.5L20.5127 61.5322C21.0529 82.8023 38.2428 99.9484 59.5723 100.487L60.6074 100.5ZM74.9287 84.999C88.4999 84.999 99.4998 74.0271 99.5 60.4951C99.5 46.9629 88.5 35.9903 74.9287 35.9902C61.3576 35.9905 50.3584 46.9631 50.3584 60.4951C50.3586 74.027 61.3577 84.9988 74.9287 84.999ZM74.9395 76.4697C66.0897 76.4697 58.9131 69.314 58.9131 60.4844C58.9131 51.6548 66.0896 44.4991 74.9395 44.499C83.7891 44.4992 90.9658 51.6548 90.9658 60.4844C90.9658 69.3139 83.7891 76.4695 74.9395 76.4697Z" stroke="#002861" stroke-opacity="0.4"/>
<defs>
<filter id="filter0_i_136_24" x="20" y="20" width="80" height="83" filterUnits="userSpaceOnUse" color-interpolation-filters="sRGB">
<feFlood flood-opacity="0" result="BackgroundImageFix"/>
<feBlend mode="normal" in="SourceGraphic" in2="BackgroundImageFix" result="shape"/>
<feColorMatrix in="SourceAlpha" type="matrix" values="0 0 0 0 0 0 0 0 0 0 0 0 0 0 0 0 0 0 127 0" result="hardAlpha"/>
<feOffset dy="2"/>
<feGaussianBlur stdDeviation="2"/>
<feComposite in2="hardAlpha" operator="arithmetic" k2="-1" k3="1"/>
<feColorMatrix type="matrix" values="0 0 0 0 1 0 0 0 0 1 0 0 0 0 1 0 0 0 0.5 0"/>
<feBlend mode="normal" in2="shape" result="effect1_innerShadow_136_24"/>
</filter>
</defs>
</svg>
