<svg width="40" height="40" viewBox="0 0 40 40" fill="none" xmlns="http://www.w3.org/2000/svg">
<g clip-path="url(#clip0_102_57)">
<path d="M16.6059 31.4287L22.8288 37.6287C23.211 38.0204 23.6888 38.3055 24.2149 38.4559C24.7411 38.6062 25.2974 38.6165 25.8288 38.4859C26.363 38.3611 26.8562 38.1012 27.2609 37.7309C27.6657 37.3607 27.9685 36.8926 28.1402 36.3716L38.3574 5.74301C38.5727 5.16906 38.6183 4.54527 38.4888 3.9461C38.3593 3.34693 38.0601 2.79768 37.6269 2.36391C37.1937 1.93015 36.6449 1.63018 36.0459 1.49982C35.4469 1.36946 34.8231 1.41421 34.2488 1.62873L3.62023 11.8487C3.08132 12.0327 2.60125 12.3571 2.22959 12.7886C1.85792 13.22 1.60811 13.7428 1.50595 14.303C1.40097 14.813 1.42434 15.3411 1.57395 15.8398C1.72356 16.3385 1.99473 16.7922 2.36309 17.1602L10.1831 24.9802L9.92595 34.883L16.6059 31.4287ZM37.4459 2.2573L10.1831 24.9773Z" fill="white" fill-opacity="0.2"/>
<path d="M37.4459 2.2573L10.1831 24.9773M16.6059 31.4287L22.8288 37.6287C23.211 38.0204 23.6888 38.3055 24.2149 38.4559C24.7411 38.6062 25.2974 38.6165 25.8288 38.4859C26.363 38.3611 26.8562 38.1012 27.2609 37.7309C27.6657 37.3607 27.9685 36.8926 28.1402 36.3716L38.3574 5.74301C38.5727 5.16906 38.6183 4.54527 38.4888 3.9461C38.3593 3.34693 38.0601 2.79768 37.6269 2.36391C37.1937 1.93015 36.6449 1.63018 36.0459 1.49982C35.4469 1.36946 34.8231 1.41421 34.2488 1.62873L3.62023 11.8487C3.08132 12.0327 2.60125 12.3571 2.22959 12.7886C1.85792 13.22 1.60811 13.7428 1.50595 14.303C1.40097 14.813 1.42434 15.3411 1.57395 15.8398C1.72356 16.3385 1.99473 16.7922 2.36309 17.1602L10.1831 24.9802L9.92595 34.883L16.6059 31.4287Z" stroke="#C6C1F0" stroke-width="1.2" stroke-linecap="round" stroke-linejoin="round"/>
</g>
<defs>
<clipPath id="clip0_102_57">
<rect width="40" height="40" fill="white"/>
</clipPath>
</defs>
</svg>
