<svg width="80" height="80" viewBox="0 0 80 80" fill="none" xmlns="http://www.w3.org/2000/svg">
<path d="M40.8101 20.6134L28.5301 27.5801C25.7601 29.1534 24.3735 29.9401 24.0135 31.2867C23.6535 32.6334 24.4601 34.0067 26.0735 36.7534L28.0568 40.1367C29.6301 42.8101 30.4135 44.1467 31.7335 44.5001C33.0535 44.8534 34.4001 44.0867 37.1001 42.5567L49.5501 35.4901M23.5201 32.4101L11.4135 39.2801C8.55679 40.9001 7.13013 41.7134 6.75679 43.0867C6.38346 44.4601 7.20679 45.8634 8.85346 48.6701C10.5001 51.4734 11.3235 52.8767 12.7235 53.2467C14.1235 53.6167 15.5501 52.8034 18.4035 51.1834L30.5135 44.3101M71.1468 17.2834L67.6501 11.3301C66.0035 8.52673 65.1801 7.12339 63.7835 6.75339C62.3835 6.38673 60.9568 7.19673 58.1001 8.81673L45.8235 15.7834C43.0501 17.3567 41.6668 18.1434 41.3068 19.4901C40.9435 20.8401 41.7501 22.2134 43.3635 24.9567L47.0968 31.3167C48.6668 33.9901 49.4535 35.3267 50.7735 35.6801C52.0935 36.0334 53.4401 35.2667 56.1368 33.7367L68.5868 26.6701C71.4435 25.0501 72.8701 24.2401 73.2435 22.8667C73.6168 21.4934 72.7935 20.0901 71.1468 17.2834Z" fill="url(#paint0_linear_86_122)" fill-opacity="0.5"/>
<path d="M40.8101 20.6134L28.5301 27.5801C25.7601 29.1534 24.3735 29.9401 24.0135 31.2867C23.6535 32.6334 24.4601 34.0067 26.0735 36.7534L28.0568 40.1367C29.6301 42.8101 30.4135 44.1467 31.7335 44.5001C33.0535 44.8534 34.4001 44.0867 37.1001 42.5567L49.5501 35.4901M23.5201 32.4101L11.4135 39.2801C8.55679 40.9001 7.13013 41.7134 6.75679 43.0867C6.38346 44.4601 7.20679 45.8634 8.85346 48.6701C10.5001 51.4734 11.3235 52.8767 12.7235 53.2467C14.1235 53.6167 15.5501 52.8034 18.4035 51.1834L30.5135 44.3101M71.1468 17.2834L67.6501 11.3301C66.0035 8.52673 65.1801 7.12339 63.7835 6.75339C62.3835 6.38673 60.9568 7.19673 58.1001 8.81673L45.8235 15.7834C43.0501 17.3567 41.6668 18.1434 41.3068 19.4901C40.9435 20.8401 41.7501 22.2134 43.3635 24.9567L47.0968 31.3167C48.6668 33.9901 49.4535 35.3267 50.7735 35.6801C52.0935 36.0334 53.4401 35.2667 56.1368 33.7367L68.5868 26.6701C71.4435 25.0501 72.8701 24.2401 73.2435 22.8667C73.6168 21.4934 72.7935 20.0901 71.1468 17.2834Z" stroke="white" stroke-width="3" stroke-linejoin="round"/>
<path d="M40.0003 41.6667L53.3337 73.3334ZM40.0003 41.6667L26.667 73.3334Z" fill="url(#paint1_linear_86_122)" fill-opacity="0.5"/>
<path d="M53.3337 73.3334L40.0003 41.6667L26.667 73.3334" stroke="white" stroke-width="3" stroke-linecap="round"/>
<defs>
<linearGradient id="paint0_linear_86_122" x1="40.0001" y1="6.66626" x2="40.0001" y2="53.335" gradientUnits="userSpaceOnUse">
<stop offset="0.4" stop-color="white"/>
<stop offset="1" stop-color="#999999"/>
</linearGradient>
<linearGradient id="paint1_linear_86_122" x1="40.0003" y1="41.6667" x2="40.0003" y2="73.3334" gradientUnits="userSpaceOnUse">
<stop offset="0.4" stop-color="white"/>
<stop offset="1" stop-color="#999999"/>
</linearGradient>
</defs>
</svg>
