<svg width="89" height="22" viewBox="0 0 89 22" fill="none" xmlns="http://www.w3.org/2000/svg">
<path d="M8.00797 21.448C6.38397 21.448 4.97464 21.1027 3.77997 20.412C2.58531 19.7027 1.65197 18.7227 0.979973 17.472C0.326639 16.2213 -2.73287e-05 14.7933 -2.73287e-05 13.188C-2.73287e-05 11.564 0.326639 10.1267 0.979973 8.876C1.65197 7.62533 2.58531 6.64533 3.77997 5.936C4.97464 5.22667 6.38397 4.872 8.00797 4.872C9.07197 4.872 10.0706 5.08667 11.004 5.516C11.956 5.94533 12.7773 6.57067 13.468 7.392C14.1586 8.19467 14.6626 9.19333 14.98 10.388C15.2973 11.564 15.3533 12.908 15.148 14.42H2.12797V11.34H12.684L11.396 12.124C11.4893 11.508 11.4146 10.9013 11.172 10.304C10.948 9.70667 10.5746 9.22133 10.052 8.848C9.52931 8.456 8.84797 8.26 8.00797 8.26C7.01864 8.26 6.21597 8.47467 5.59997 8.904C4.98397 9.33333 4.53597 9.93067 4.25597 10.696C3.97597 11.4427 3.83597 12.2733 3.83597 13.188C3.83597 14.084 3.97597 14.9053 4.25597 15.652C4.53597 16.3987 4.98397 16.9867 5.59997 17.416C6.21597 17.8453 7.01864 18.06 8.00797 18.06C8.84797 18.06 9.53864 17.864 10.08 17.472C10.6213 17.08 10.9946 16.5947 11.2 16.016H15.176C14.952 17.0987 14.5133 18.0507 13.86 18.872C13.2066 19.6747 12.3853 20.3093 11.396 20.776C10.4066 21.224 9.27731 21.448 8.00797 21.448ZM17.3497 5.32H21.1017V7.756C21.307 7.252 21.615 6.78533 22.0257 6.356C22.4364 5.908 22.9777 5.55333 23.6497 5.292C24.3217 5.012 25.143 4.872 26.1137 4.872C27.1217 4.872 28.0177 5.07733 28.8017 5.488C29.5857 5.89867 30.2017 6.58 30.6497 7.532C31.0977 8.46533 31.3217 9.73467 31.3217 11.34V21H27.5697V11.704C27.5697 11.032 27.5137 10.4253 27.4017 9.884C27.2897 9.34267 27.0564 8.92267 26.7017 8.624C26.347 8.30667 25.8057 8.148 25.0777 8.148C24.4617 8.148 23.8457 8.32533 23.2297 8.68C22.6137 9.016 22.1004 9.55733 21.6897 10.304C21.2977 11.0507 21.1017 12.0493 21.1017 13.3V21H17.3497V5.32ZM33.9487 -1.66893e-06H37.7007V21H33.9487V-1.66893e-06ZM54.3165 21H50.5645V5.32H54.3165V21ZM50.5645 13.02L51.0125 16.212C51.0125 16.6973 50.9378 17.2387 50.7885 17.836C50.6391 18.4333 50.3685 19.012 49.9765 19.572C49.5845 20.1133 49.0338 20.5613 48.3245 20.916C47.6151 21.2707 46.6911 21.448 45.5525 21.448C44.5445 21.448 43.6485 21.2427 42.8645 20.832C42.0805 20.4213 41.4645 19.74 41.0165 18.788C40.5685 17.836 40.3445 16.5667 40.3445 14.98V5.32H44.0685V14.616C44.0685 15.288 44.1245 15.8947 44.2365 16.436C44.3485 16.9587 44.5818 17.3787 44.9365 17.696C45.3098 18.0133 45.8605 18.172 46.5885 18.172C47.2045 18.172 47.8205 18.004 48.4365 17.668C49.0525 17.3133 49.5565 16.7627 49.9485 16.016C50.3591 15.2507 50.5645 14.252 50.5645 13.02ZM56.9981 5.32H60.7501V7.756C60.9555 7.252 61.2635 6.78533 61.6741 6.356C62.0848 5.908 62.6261 5.55333 63.2981 5.292C63.9701 5.012 64.7915 4.872 65.7621 4.872C66.7701 4.872 67.6661 5.07733 68.4501 5.488C69.2341 5.89867 69.8501 6.58 70.2981 7.532C70.7461 8.46533 70.9701 9.73467 70.9701 11.34V21H67.2181V11.704C67.2181 11.032 67.1621 10.4253 67.0501 9.884C66.9381 9.34267 66.7048 8.92267 66.3501 8.624C65.9955 8.30667 65.4541 8.148 64.7261 8.148C64.1101 8.148 63.4941 8.32533 62.8781 8.68C62.2621 9.016 61.7488 9.55733 61.3381 10.304C60.9461 11.0507 60.7501 12.0493 60.7501 13.3V21H56.9981V5.32ZM80.9611 21.448C79.3371 21.448 77.9278 21.1027 76.7331 20.412C75.5384 19.7027 74.6051 18.7227 73.9331 17.472C73.2798 16.2213 72.9531 14.7933 72.9531 13.188C72.9531 11.564 73.2798 10.1267 73.9331 8.876C74.6051 7.62533 75.5384 6.64533 76.7331 5.936C77.9278 5.22667 79.3371 4.872 80.9611 4.872C82.0251 4.872 83.0238 5.08667 83.9571 5.516C84.9091 5.94533 85.7304 6.57067 86.4211 7.392C87.1118 8.19467 87.6158 9.19333 87.9331 10.388C88.2504 11.564 88.3064 12.908 88.1011 14.42H75.0811V11.34H85.6371L84.3491 12.124C84.4424 11.508 84.3678 10.9013 84.1251 10.304C83.9011 9.70667 83.5278 9.22133 83.0051 8.848C82.4824 8.456 81.8011 8.26 80.9611 8.26C79.9718 8.26 79.1691 8.47467 78.5531 8.904C77.9371 9.33333 77.4891 9.93067 77.2091 10.696C76.9291 11.4427 76.7891 12.2733 76.7891 13.188C76.7891 14.084 76.9291 14.9053 77.2091 15.652C77.4891 16.3987 77.9371 16.9867 78.5531 17.416C79.1691 17.8453 79.9718 18.06 80.9611 18.06C81.8011 18.06 82.4918 17.864 83.0331 17.472C83.5744 17.08 83.9478 16.5947 84.1531 16.016H88.1291C87.9051 17.0987 87.4664 18.0507 86.8131 18.872C86.1598 19.6747 85.3384 20.3093 84.3491 20.776C83.3598 21.224 82.2304 21.448 80.9611 21.448Z" fill="black"/>
</svg>
