<svg width="80" height="80" viewBox="0 0 80 80" fill="none" xmlns="http://www.w3.org/2000/svg">
<path d="M70.7935 30.51C70.7048 31.1687 70.4386 31.7909 70.0235 32.31L42.8902 67.23C42.3869 67.8633 41.6902 68.3166 40.9035 68.5166C40.3856 68.6427 39.8449 68.6427 39.3269 68.5166C38.4436 68.3642 37.6467 67.8934 37.0869 67.1933L9.95355 32.31C9.48476 31.7153 9.21161 30.99 9.17162 30.2338C9.13163 29.4775 9.32676 28.7275 9.73021 28.0866L19.3502 13.1066L19.6435 12.74C19.9847 12.3293 20.4115 11.9982 20.894 11.7696C21.3764 11.541 21.903 11.4206 22.4369 11.4166H57.5369C57.818 11.3807 58.1025 11.3807 58.3835 11.4166C59.3064 11.6339 60.1092 12.2002 60.6236 12.9966L70.2435 27.9766C70.7292 28.7259 70.9248 29.6267 70.7935 30.51Z" fill="url(#paint0_linear_86_137)" fill-opacity="0.5" stroke="white" stroke-width="2" stroke-linecap="round" stroke-linejoin="round"/>
<path d="M47.3335 11.5266L52.5802 30.5099L40.9035 68.4766M39.3268 68.5166L25.9235 30.5099L32.6435 11.5266M9.18018 30.5099H70.7935" stroke="white" stroke-width="2" stroke-linecap="round" stroke-linejoin="round"/>
<defs>
<linearGradient id="paint0_linear_86_137" x1="39.9999" y1="11.3896" x2="39.9999" y2="68.6112" gradientUnits="userSpaceOnUse">
<stop offset="0.4" stop-color="white"/>
<stop offset="1" stop-color="#999999"/>
</linearGradient>
</defs>
</svg>
