<svg width="80" height="80" viewBox="0 0 80 80" fill="none" xmlns="http://www.w3.org/2000/svg">
<path d="M68.3332 36.6666H63.3332V23.3333C63.3332 21.5651 62.6308 19.8694 61.3805 18.6192C60.1303 17.369 58.4346 16.6666 56.6665 16.6666H43.3332V11.6666C43.3332 9.45645 42.4552 7.33683 40.8924 5.77403C39.3296 4.21123 37.21 3.33325 34.9998 3.33325C32.7897 3.33325 30.6701 4.21123 29.1073 5.77403C27.5445 7.33683 26.6665 9.45645 26.6665 11.6666V16.6666H13.3332C11.5651 16.6666 9.86937 17.369 8.61913 18.6192C7.36888 19.8694 6.6665 21.5651 6.6665 23.3333V35.9999H11.6665C16.6665 35.9999 20.6665 39.9999 20.6665 44.9999C20.6665 49.9999 16.6665 53.9999 11.6665 53.9999H6.6665V66.6666C6.6665 68.4347 7.36888 70.1304 8.61913 71.3806C9.86937 72.6309 11.5651 73.3333 13.3332 73.3333H25.9998V68.3333C25.9998 63.3333 29.9998 59.3332 34.9998 59.3332C39.9998 59.3332 43.9998 63.3333 43.9998 68.3333V73.3333H56.6665C58.4346 73.3333 60.1303 72.6309 61.3805 71.3806C62.6308 70.1304 63.3332 68.4347 63.3332 66.6666V53.3333H68.3332C70.5433 53.3333 72.6629 52.4553 74.2257 50.8925C75.7885 49.3297 76.6665 47.2101 76.6665 44.9999C76.6665 42.7898 75.7885 40.6702 74.2257 39.1074C72.6629 37.5446 70.5433 36.6666 68.3332 36.6666Z" fill="url(#paint0_linear_99_35)"/>
<defs>
<linearGradient id="paint0_linear_99_35" x1="41.6665" y1="3.33325" x2="41.6665" y2="73.3333" gradientUnits="userSpaceOnUse">
<stop offset="0.4" stop-color="white"/>
<stop offset="1" stop-color="#999999"/>
</linearGradient>
</defs>
</svg>
